<?xml version="1.0" encoding="UTF-8" standalone="no"?>
<!DOCTYPE svg PUBLIC "-//W3C//DTD SVG 1.1//EN" "http://www.w3.org/Graphics/SVG/1.1/DTD/svg11.dtd">
<svg width="100%" height="100%" viewBox="0 0 205 205" version="1.1" xmlns="http://www.w3.org/2000/svg" xmlns:xlink="http://www.w3.org/1999/xlink" xml:space="preserve" xmlns:serif="http://www.serif.com/" style="fill-rule:evenodd;clip-rule:evenodd;stroke-linejoin:round;stroke-miterlimit:2;">
    <g transform="matrix(1,0,0,1,-251.116,-241.784)">
        <path d="M272.232,282.024C266.472,290.736 265.392,290.952 260.424,301.32C252.432,318.024 249.624,338.112 251.856,356.472C254.808,380.664 265.968,405.576 291.096,425.376C307.368,438.192 328.104,445.32 347.4,446.328C410.472,449.784 462.672,396.072 454.968,331.92C452.088,307.8 440.784,282.888 415.656,263.016C403.704,253.512 390.24,248.04 377.712,244.728C353.88,238.464 327.672,242.568 306,253.512C295.704,258.696 279.72,270.72 272.232,282.024ZM349.344,250.344C347.616,249.48 337.32,251.28 334.44,251.856C324.216,254.016 314.64,257.616 305.496,262.944C301.968,265.032 294.336,270 291.456,273.168C300.168,280.44 314.64,282.24 325.512,278.64C330.84,276.912 336.672,273.528 341.352,267.984C345.24,263.304 349.2,255.096 349.344,250.344ZM295.056,303.552C313.272,318.6 335.232,318.744 352.008,307.512C365.976,298.08 371.736,280.584 370.656,265.176C370.44,262.728 369.216,253.08 368.136,251.136C366.048,250.56 359.424,249.84 357.696,250.2C356.616,252.504 356.616,261.72 348.336,272.016C333.144,290.952 307.368,294.12 285.696,279C284.544,279.648 280.44,284.112 279.648,285.408C279,286.416 278.712,286.128 280.872,288.432C281.952,289.584 282.672,290.448 283.68,291.528C287.352,295.776 290.592,299.88 295.056,303.552ZM267.336,305.496C268.704,306.864 277.272,313.128 281.088,316.512C285.264,320.184 289.008,324 292.68,327.96C300.24,336.24 305.568,344.16 315.792,350.208C353.376,372.456 394.344,348.408 395.496,307.08C395.784,296.208 391.68,282.024 390.312,269.64C390.096,267.336 389.088,258.84 389.232,257.184C386.568,255.312 380.016,253.944 377.136,252.936C376.848,253.944 378.144,259.488 378.36,261.864C384.12,320.112 318.096,344.592 281.88,301.68C280.224,299.736 275.976,294.408 274.176,293.112C271.224,297.072 269.496,301.536 267.336,305.496ZM259.776,333C261.072,334.368 266.184,337.464 268.2,338.832C271.224,340.92 274.032,343.152 276.912,345.456C282.744,350.208 287.928,354.888 292.896,360C302.4,369.72 309.744,381.024 321.912,389.088C343.08,403.056 366.768,403.992 386.568,393.912C397.296,388.44 407.592,378.36 413.064,366.192C418.464,354.024 419.4,344.592 419.112,333.432C418.824,324.144 415.512,312.12 414.072,301.968C412.848,293.184 412.128,286.704 411.624,278.136C411.552,276.048 411.264,272.088 411.48,270.072C409.032,267.84 400.032,261.72 397.656,261C397.08,263.736 400.464,283.032 401.256,286.992C403.128,296.496 404.064,303.696 403.056,313.488C398.736,355.248 354.384,379.944 315.792,359.424C294.264,347.904 289.728,331.344 264.384,313.488C262.656,316.224 259.992,329.76 259.776,333ZM419.832,277.416C418.968,280.584 422.712,305.352 423.144,308.016C425.16,320.76 427.104,323.856 427.176,338.4C427.176,372.744 402.624,405.072 364.824,408.312C341.496,410.328 318.168,400.464 302.04,382.248C291.672,370.584 285.984,363.384 272.88,352.512C269.352,349.56 262.944,344.376 259.272,342.576C258.84,344.016 259.344,350.784 259.56,352.8C259.848,356.544 260.352,359.64 261.072,363.312C262.44,369.792 264.816,377.568 267.84,383.832C274.752,398.016 284.832,411.984 300.888,422.568C341.424,449.352 395.64,441.432 426.024,404.28C446.328,379.512 452.664,346.608 443.808,317.736C441.72,310.896 439.2,304.128 435.312,297.432C431.856,291.528 425.736,282.456 419.832,277.416Z" style="fill:url(#_Linear1);"/>
    </g>
    <defs>
        <linearGradient id="_Linear1" x1="0" y1="0" x2="1" y2="0" gradientUnits="userSpaceOnUse" gradientTransform="matrix(7.27048e-15,118.736,-118.736,7.27048e-15,353.403,284.784)"><stop offset="0" style="stop-color:rgb(199,218,60);stop-opacity:1"/><stop offset="0.59" style="stop-color:rgb(139,149,69);stop-opacity:1"/><stop offset="1" style="stop-color:rgb(79,79,79);stop-opacity:1"/></linearGradient>
    </defs>
</svg>
