<svg width="200" height="201" viewBox="0 0 200 201" fill="none" xmlns="http://www.w3.org/2000/svg">
<path d="M188.7 107.649C194.754 108.147 200.13 103.634 199.961 97.5609C199.494 80.7912 194.813 64.3445 186.269 49.7705C175.863 32.0212 160.237 17.9134 141.519 9.37097C122.802 0.828578 101.906 -1.73258 81.6794 2.03678C61.4532 5.80613 42.882 15.7225 28.4982 30.4336C14.1145 45.1447 4.61851 63.9344 1.30521 84.2403C-2.00809 104.546 1.0226 125.38 9.98397 143.9C18.9454 162.42 33.4012 177.726 51.3801 187.729C66.1427 195.943 82.6906 200.253 99.4665 200.343C105.542 200.375 109.933 194.899 109.299 188.857V188.857C108.664 182.815 103.236 178.514 97.1645 178.293C84.9115 177.847 72.881 174.516 62.0765 168.504C48.0529 160.702 36.7774 148.764 29.7875 134.318C22.7976 119.872 20.4337 103.622 23.0181 87.7831C25.6024 71.9445 33.0093 57.2886 44.2286 45.8139C55.4479 34.3393 69.9335 26.6045 85.71 23.6644C101.486 20.7243 117.786 22.722 132.385 29.3851C146.985 36.0482 159.174 47.0522 167.29 60.8967C173.543 71.5632 177.144 83.5157 177.865 95.7556C178.222 101.82 182.645 107.15 188.7 107.649V107.649Z" fill="url(#paint0_linear_55_7)"/>
<path d="M12.6058 83.5142C6.64027 82.3653 0.808613 86.2729 0.321552 92.3285C-1.32301 112.775 3.35755 133.334 13.87 151.154C24.3824 168.974 40.1123 183.014 58.8037 191.465C64.3394 193.967 70.5802 190.753 72.4601 184.976V184.976C74.3399 179.199 71.1329 173.06 65.6776 170.387C52.0597 163.714 40.6045 153.174 32.8186 139.976C25.0327 126.777 21.3481 111.653 22.0943 96.5069C22.3932 90.4391 18.5713 84.663 12.6058 83.5142V83.5142Z" fill="#F8C33A"/>
<path d="M13.3222 120.542C7.40557 121.921 3.66928 127.864 5.68911 133.593C12.5091 152.939 25.1521 169.813 42.0075 181.811C58.8629 193.81 78.9455 200.232 99.458 200.343C105.533 200.376 109.925 194.9 109.291 188.858V188.858C108.657 182.816 103.229 178.514 97.1578 178.293C82.0029 177.74 67.2496 172.775 54.7658 163.888C42.2821 155.002 32.7608 142.687 27.2774 128.548C25.0807 122.884 19.2388 119.163 13.3222 120.542V120.542Z" fill="url(#paint1_linear_55_7)"/>
<path d="M188.7 107.65C194.754 108.149 200.13 103.635 199.961 97.5626C199.681 87.5025 197.884 77.5208 194.611 67.9596C190.148 54.921 183.038 42.9457 173.728 32.7851C164.417 22.6246 153.107 14.4981 140.507 8.91572C131.267 4.82211 121.48 2.16137 111.483 1.00572C105.448 0.308106 100.483 5.27033 100.452 11.3454V11.3454C100.422 17.4204 105.346 22.2908 111.356 23.1753C118.32 24.2001 125.129 26.1652 131.596 29.03C141.424 33.3842 150.245 39.7229 157.508 47.6481C164.77 55.5734 170.315 64.9141 173.797 75.0842C176.087 81.7754 177.451 88.7305 177.865 95.7569C178.222 101.822 182.645 107.151 188.7 107.65V107.65Z" fill="url(#paint2_linear_55_7)"/>
<defs>
<linearGradient id="paint0_linear_55_7" x1="91.5" y1="63.8442" x2="107.5" y2="116.344" gradientUnits="userSpaceOnUse">
<stop stop-color="#F8C33A"/>
<stop offset="1" stop-color="#2CA049"/>
</linearGradient>
<linearGradient id="paint1_linear_55_7" x1="69.5" y1="159.344" x2="39.5" y2="116.344" gradientUnits="userSpaceOnUse">
<stop stop-color="#F6435C"/>
<stop offset="1" stop-color="#F6435C" stop-opacity="0"/>
</linearGradient>
<linearGradient id="paint2_linear_55_7" x1="65" y1="137.5" x2="39.5" y2="116.344" gradientUnits="userSpaceOnUse">
<stop stop-color="#2CA049"/>
<stop offset="1" stop-color="#F8C33A"/>
</linearGradient>
</defs>
</svg>
