<?xml version="1.0" encoding="utf-8"?>
<svg viewBox="0 0 216 184" xmlns="http://www.w3.org/2000/svg">
  <g stroke-width="2.00" fill="none" stroke-linecap="butt" transform="matrix(1, 0, 0, 1, 0.023812003433704376, -15.003392219543443)">
    <path stroke="#ededed" stroke-opacity="0.541" vector-effect="non-scaling-stroke" d=" M 168.64 166.38 C 139.07 207.95 77.30 208.98 47.54 166.45"/>
  </g>
  <path fill="#A3E635" d="M 134.823 14.717 C 109.343 7.93 85.01 10.54 61.823 22.547 L 57.343 14.187 C 57.177 13.867 57.253 13.623 57.573 13.457 C 82.82 0.597 109.267 -2.267 136.913 4.867 C 137.318 4.969 137.558 5.386 137.443 5.787 L 134.823 14.717 Z" transform="matrix(1, 0, 0, 1, 0, 1.4210854715202004e-14)"/>
  <path fill="#facc15" d="M 187.563 51.567 C 174.263 33.76 157.037 21.557 135.883 14.957 L 138.473 6.327 C 138.618 5.847 139.125 5.578 139.603 5.727 C 162.35 12.94 180.85 26.087 195.103 45.167 C 195.349 45.498 195.277 45.965 194.943 46.207 L 187.563 51.567 Z" transform="matrix(1, 0, 0, 1, 0, 1.4210854715202004e-14)"/>
  <path fill="#e5e7eb" d="M 134.823 14.717 C 135.043 14.99 135.397 15.07 135.883 14.957 C 157.037 21.557 174.263 33.76 187.563 51.567 C 187.683 51.58 187.83 51.87 188.003 52.437 C 195.557 63.31 200.817 75.213 203.783 88.147 L 204.053 89.027 C 205.933 99.04 206.417 109.087 205.503 119.167 C 205.237 119.353 205.183 119.737 205.343 120.317 C 203.81 132.77 200.11 144.553 194.243 155.667 L 188.703 164.617 C 188.497 164.95 188.233 165.003 187.913 164.777 L 172.323 153.927 L 168.663 151.377 C 175.533 141.157 181.273 127.327 181.573 114.897 C 181.633 112.537 182.633 109.617 182.083 106.867 C 181.69 104.907 181.477 103.627 181.443 103.027 C 180.323 84.907 172.303 69.027 159.843 55.967 L 159.433 32.207 C 159.427 31.853 159.26 31.743 158.933 31.877 L 137.083 40.707 C 127.85 37.36 118.193 35.483 108.113 35.077 C 106.053 34.997 102.373 35.427 100.683 35.617 C 83.163 37.637 69.273 44.007 56.683 56.137 C 30.733 81.127 26.723 121.967 47.563 151.447 L 43.993 153.677 L 28.063 164.707 C 27.757 164.92 27.503 164.867 27.303 164.547 L 21.703 155.357 C -3.927 106.647 14.053 50.227 61.043 22.897 L 61.823 22.547 C 85.01 10.54 109.343 7.93 134.823 14.717 Z" transform="matrix(1, 0, 0, 1, 0, 1.4210854715202004e-14)"/>
  <path fill="#15803d" d="M 61.043 22.897 C 14.053 50.227 -3.927 106.647 21.703 155.357 L 13.473 159.647 C 13.092 159.846 12.623 159.697 12.433 159.317 C 4.88 144.557 0.743 128.927 0.023 112.427 L 0.023 105.447 C 1.693 67.097 22.353 33.317 55.573 14.677 C 55.948 14.465 56.425 14.605 56.633 14.987 L 61.043 22.897 Z" transform="matrix(1, 0, 0, 1, 0, 1.4210854715202004e-14)"/>
  <path fill="#1f2937" d="M 159.843 55.967 C 153.07 49.787 145.483 44.7 137.083 40.707 L 158.933 31.877 C 159.26 31.743 159.427 31.853 159.433 32.207 L 159.843 55.967 Z" transform="matrix(1, 0, 0, 1, 0, 1.4210854715202004e-14)"/>
  <path fill="#F87171" d="M 203.783 88.147 C 200.817 75.213 195.557 63.31 188.003 52.437 L 195.723 47.067 C 196 46.873 196.38 46.94 196.573 47.217 C 204.48 58.677 210.04 71.193 213.253 84.767 C 213.44 85.56 213.137 86.043 212.343 86.217 L 203.783 88.147 Z" transform="matrix(1, 0, 0, 1, 0, 1.4210854715202004e-14)"/>
  <path fill="#ef4444" d="M 205.503 119.167 C 206.417 109.087 205.933 99.04 204.053 89.027 L 213.323 87.127 C 213.55 87.084 213.768 87.231 213.813 87.457 C 215.893 97.877 216.473 108.387 215.553 118.987 C 215.493 119.693 215.11 120.017 214.403 119.957 L 205.503 119.167 Z" transform="matrix(1, 0, 0, 1, 0, 1.4210854715202004e-14)"/>
  <path fill="#DC2626" d="M 205.343 120.317 L 214.453 121.257 C 214.925 121.309 215.262 121.736 215.203 122.207 C 213.51 135.587 209.493 148.223 203.153 160.117 C 202.98 160.45 202.733 160.523 202.413 160.337 L 194.243 155.667 C 200.11 144.553 203.81 132.77 205.343 120.317 Z" transform="matrix(1, 0, 0, 1, 0, 1.4210854715202004e-14)"/>
</svg>