<?xml version="1.0" encoding="UTF-8" standalone="no"?>
<!DOCTYPE svg PUBLIC "-//W3C//DTD SVG 1.1//EN" "http://www.w3.org/Graphics/SVG/1.1/DTD/svg11.dtd">
<svg xmlns="http://www.w3.org/2000/svg" version="1.1" viewBox="0.00 0.00 289.00 276.00">
<g stroke-width="2.00" fill="none" stroke-linecap="butt">
<path stroke="#fee3a9" vector-effect="non-scaling-stroke" d="
  M 115.98 9.44
  Q 102.73 12.62 90.82 18.57"
/>
<path stroke="#fecea9" vector-effect="non-scaling-stroke" d="
  M 90.82 18.57
  Q 65.89 30.77 49.14 51.76"
/>
<path stroke="#fdb8a9" vector-effect="non-scaling-stroke" d="
  M 49.14 51.76
  Q 39.70 63.04 33.67 75.93"
/>
<path stroke="#fda6a9" vector-effect="non-scaling-stroke" d="
  M 33.67 75.93
  C 20.56 101.87 17.90 132.77 24.86 160.68"
/>
<path stroke="#f8f6f6" vector-effect="non-scaling-stroke" d="
  M 24.86 160.68
  L 24.71 161.57
  Q 24.63 162.06 24.14 161.99
  L 23.81 161.95
  Q 23.39 161.89 23.49 162.31
  C 25.16 168.62 34.32 173.59 38.10 165.99
  Q 38.32 165.55 38.29 165.05
  C 38.17 162.90 38.65 162.08 40.77 161.46
  Q 49.47 158.87 58.93 156.11
  Q 60.46 155.66 60.58 157.26
  Q 60.91 162.07 61.40 167.64
  C 61.61 170.02 62.90 171.55 63.94 173.62
  Q 64.17 174.07 64.65 174.24
  L 65.65 174.58
  Q 66.23 174.78 66.43 175.37
  L 68.39 181.12
  Q 68.55 181.57 68.94 181.85
  C 72.05 184.05 73.21 186.51 75.31 189.60
  C 76.48 191.34 76.93 193.29 79.25 194.58
  C 82.41 196.34 84.21 198.45 86.67 200.83
  C 87.56 201.69 88.77 201.89 89.62 202.83
  C 94.05 207.80 100.73 212.14 106.39 215.63
  Q 107.50 216.32 108.46 217.31
  Q 108.83 217.69 109.34 217.54
  C 112.43 216.63 115.35 219.33 118.58 219.77
  Q 121.60 220.19 123.39 220.77
  C 133.15 223.94 145.59 224.45 155.00 224.34
  C 156.90 224.31 158.16 225.42 160.04 223.38
  A 1.55 1.49 14.6 0 1 160.86 222.92
  Q 167.37 221.65 174.74 219.19
  C 176.55 218.59 177.39 217.70 179.20 217.22
  Q 183.69 216.01 187.04 212.70
  A 1.70 1.66 -72.4 0 1 187.86 212.26
  C 191.16 211.60 193.07 209.40 195.95 208.32
  C 199.02 207.16 201.15 206.17 203.46 203.53
  Q 206.63 199.91 210.47 196.98
  C 211.89 195.90 212.46 194.43 213.84 193.24
  Q 214.22 192.91 214.41 192.45
  Q 217.95 183.92 223.17 176.34
  Q 226.35 171.74 227.24 168.97
  Q 229.00 163.54 228.70 157.58
  A 0.95 0.95 0.0 0 1 229.13 156.73
  C 230.85 155.59 232.65 156.86 234.10 157.29
  Q 246.17 160.83 258.37 164.71
  Q 258.83 164.86 258.96 164.40
  C 267.32 135.34 265.05 105.94 252.19 78.38
  A 0.88 0.86 54.4 0 1 252.34 77.43
  L 255.18 74.36
  Q 255.45 74.07 255.48 73.68
  L 255.73 70.76"
/>
<path stroke="#bcffa9" vector-effect="non-scaling-stroke" d="
  M 255.73 70.76
  C 261.92 59.68 253.55 47.91 241.36 48.20
  C 240.24 48.22 238.99 49.24 237.94 48.07
  Q 213.29 20.41 177.77 10.39"
/>
<path stroke="#dffca8" vector-effect="non-scaling-stroke" d="
  M 177.77 10.39
  Q 160.67 5.77 142.98 5.95"
/>
<path stroke="#fef2a9" vector-effect="non-scaling-stroke" d="
  M 142.98 5.95
  Q 129.33 6.29 115.98 9.44"
/>
<path stroke="#deee52" vector-effect="non-scaling-stroke" d="
  M 142.98 5.95
  Q 143.79 7.79 147.43 6.94
  Q 148.09 6.79 148.32 7.42
  L 149.83 11.60
  Q 149.99 12.05 150.35 12.38
  C 152.96 14.77 150.59 18.05 147.83 18.43"
/>
<path stroke="#f7e9a0" vector-effect="non-scaling-stroke" d="
  M 147.83 18.43
  L 129.73 19.32"
/>
<path stroke="#fdd653" vector-effect="non-scaling-stroke" d="
  M 129.73 19.32
  Q 129.83 19.18 129.21 18.78
  A 0.11 0.11 0.0 0 1 129.23 18.59
  Q 129.38 18.54 129.56 18.49
  A 0.19 0.19 0.0 0 0 129.48 18.11
  L 123.29 18.90
  Q 122.72 18.97 122.40 19.46
  Q 121.52 20.80 120.06 19.98
  A 0.52 0.51 35.1 0 1 119.92 19.20
  Q 120.27 18.79 120.58 19.21
  Q 120.92 19.66 121.21 19.18
  C 123.67 15.12 118.77 15.08 120.01 11.28
  A 0.59 0.58 -76.5 0 0 119.54 10.51
  Q 118.66 10.38 117.98 10.90
  A 0.98 0.96 -59.6 0 1 117.24 11.10
  Q 115.80 10.89 115.98 9.44"
/>
<path stroke="#9cfc52" vector-effect="non-scaling-stroke" d="
  M 177.77 10.39
  Q 176.84 11.53 177.47 11.79
  Q 181.20 13.35 184.98 14.04
  A 1.24 1.24 0.0 0 1 185.89 15.76
  Q 185.83 15.90 185.75 16.02
  Q 185.43 16.49 186.00 16.51
  Q 186.97 16.55 187.11 17.44
  C 187.39 19.35 189.42 23.95 189.15 24.73
  Q 188.97 25.25 189.52 25.25
  L 190.56 25.25
  A 0.63 0.63 0.0 0 1 191.18 25.96
  L 190.86 28.30"
/>
<path stroke="#d7f39f" vector-effect="non-scaling-stroke" d="
  M 190.86 28.30
  Q 170.23 18.93 147.83 18.43"
/>
<path stroke="#f69da0" vector-effect="non-scaling-stroke" d="
  M 24.86 160.68
  C 26.12 164.90 29.84 166.47 33.66 164.25
  C 38.14 161.64 36.54 158.01 35.75 153.78
  C 31.75 132.34 32.87 111.40 40.62 91.09"
/>
<path stroke="#f6afa0" vector-effect="non-scaling-stroke" d="
  M 40.62 91.09
  Q 45.88 76.85 54.79 64.55"
/>
<path stroke="#f6c5a0" vector-effect="non-scaling-stroke" d="
  M 54.79 64.55
  Q 69.76 43.93 92.26 31.70"
/>
<path stroke="#f7daa0" vector-effect="non-scaling-stroke" d="
  M 129.73 19.32
  Q 109.96 22.32 92.26 31.70"
/>
<path stroke="#fdb252" vector-effect="non-scaling-stroke" d="
  M 92.26 31.70
  Q 92.44 30.21 91.19 29.03
  Q 90.85 28.71 90.69 28.27
  L 88.38 21.85
  A 0.32 0.32 0.0 0 1 88.55 21.45
  Q 91.65 20.09 90.82 18.57"
/>
<path stroke="#b5f6a0" vector-effect="non-scaling-stroke" d="
  M 255.73 70.76
  C 245.36 86.70 223.36 75.67 228.80 56.99
  Q 228.94 56.52 228.62 56.15
  Q 212.75 38.26 190.86 28.30"
/>
<path stroke="#fc8753" vector-effect="non-scaling-stroke" d="
  M 54.79 64.55
  Q 54.29 63.85 53.68 63.97
  Q 53.27 64.05 52.91 64.67
  Q 51.42 67.27 49.52 69.64
  Q 49.04 70.23 48.87 69.49
  Q 47.80 64.90 44.51 61.37
  Q 44.22 61.06 44.47 60.72
  Q 47.57 56.58 49.14 51.76"
/>
<path stroke="#fb5e53" vector-effect="non-scaling-stroke" d="
  M 40.62 91.09
  Q 39.29 90.93 38.33 91.80
  Q 37.89 92.20 37.54 91.72
  L 36.23 89.96
  Q 35.98 89.62 35.60 89.44
  L 34.63 88.99
  Q 34.03 88.71 34.36 88.13
  Q 35.34 86.40 33.65 85.33
  A 0.57 0.56 -51.0 0 0 32.96 85.41
  L 32.55 85.83
  A 0.35 0.35 0.0 0 1 31.95 85.59
  Q 31.86 80.84 34.66 77.05
  A 0.65 0.65 0.0 0 0 34.23 76.02
  L 33.67 75.93"
/>
<path stroke="#b5f6a0" vector-effect="non-scaling-stroke" d="
  M 251.01 63.27
  A 8.26 8.26 0.0 0 0 242.75 55.01
  A 8.26 8.26 0.0 0 0 234.49 63.27
  A 8.26 8.26 0.0 0 0 242.75 71.53
  A 8.26 8.26 0.0 0 0 251.01 63.27"
/>
<path stroke="#8c8a9c" vector-effect="non-scaling-stroke" d="
  M 213.81 102.10
  Q 219.21 92.06 224.69 82.41
  C 227.53 77.40 223.41 75.82 219.15 76.59
  Q 209.40 78.36 199.52 79.83"
/>
<path stroke="#f8f6f6" vector-effect="non-scaling-stroke" d="
  M 199.52 79.83
  Q 182.53 62.39 159.40 57.66
  C 119.24 49.45 80.67 76.57 72.81 116.25
  C 66.07 150.26 84.54 184.86 116.55 198.24
  C 171.37 221.15 228.91 173.91 217.67 115.57
  Q 216.56 109.81 213.81 102.10"
/>
<path stroke="#9493a5" vector-effect="non-scaling-stroke" d="
  M 199.52 79.83
  Q 208.34 89.84 213.81 102.10"
/>
<path stroke="#b5f6a0" vector-effect="non-scaling-stroke" d="
  M 246.49 63.24
  A 3.71 3.71 0.0 0 0 242.78 59.53
  A 3.71 3.71 0.0 0 0 239.07 63.24
  A 3.71 3.71 0.0 0 0 242.78 66.95
  A 3.71 3.71 0.0 0 0 246.49 63.24"
/>
<path stroke="#9493a5" vector-effect="non-scaling-stroke" d="
  M 148.00 96.39
  C 140.81 94.06 133.46 97.97 131.84 105.59
  Q 130.18 113.40 131.65 123.48
  Q 133.65 137.07 147.55 134.69
  C 158.62 132.79 157.02 118.04 156.92 110.04
  C 156.84 103.82 154.06 98.35 148.00 96.39"
/>
<path stroke="#9493a5" vector-effect="non-scaling-stroke" d="
  M 108.10 111.00
  Q 110.67 102.12 120.08 102.17
  Q 120.71 102.17 120.72 101.55
  L 120.82 96.42
  A 0.55 0.55 0.0 0 0 120.23 95.86
  C 90.67 97.45 96.42 142.53 118.05 134.70
  C 133.65 129.05 126.45 100.91 108.54 111.34
  Q 107.89 111.72 108.10 111.00"
/>
<path stroke="#9493a5" vector-effect="non-scaling-stroke" d="
  M 167.49 115.21
  Q 161.54 118.90 162.20 125.61
  C 163.59 139.60 190.60 138.97 187.72 121.48
  Q 187.11 117.78 182.62 115.33
  Q 182.04 115.02 182.59 114.64
  C 187.95 111.00 189.02 104.08 184.53 99.45
  C 178.77 93.52 165.84 94.70 163.28 103.61
  Q 161.40 110.12 167.51 114.68
  Q 167.89 114.96 167.49 115.21"
/>
<path stroke="#9493a5" vector-effect="non-scaling-stroke" d="
  M 117.25 151.10
  A 1.21 1.21 0.0 0 1 116.66 149.42
  Q 117.98 146.95 120.79 147.58
  Q 121.46 147.73 121.67 148.38
  L 122.05 149.54
  Q 122.23 150.09 122.81 150.03
  L 123.94 149.92
  Q 124.59 149.85 124.54 149.21
  C 124.07 142.26 110.88 145.76 114.82 151.81
  C 115.83 153.37 118.24 154.10 119.97 154.94
  A 1.73 1.73 0.0 0 1 120.35 157.80
  Q 118.56 159.37 116.25 158.52
  Q 115.76 158.34 115.64 157.84
  Q 115.12 155.75 112.93 156.30
  Q 112.32 156.45 112.46 157.06
  C 114.33 165.66 133.35 157.85 117.25 151.10"
/>
<path stroke="#9493a5" vector-effect="non-scaling-stroke" d="
  M 127.23 152.03
  C 126.84 154.04 125.66 157.75 126.49 159.59
  C 127.13 161.01 128.82 161.33 130.07 160.55
  A 0.88 0.88 0.0 0 0 129.67 158.93
  Q 128.98 158.87 128.72 158.22
  Q 128.58 157.83 128.70 157.15
  Q 129.19 154.52 129.60 151.83
  Q 129.69 151.25 130.28 151.25
  L 131.19 151.25
  Q 131.87 151.25 131.87 150.56
  L 131.88 150.27
  Q 131.88 149.66 131.27 149.58
  L 130.50 149.48
  A 0.56 0.55 14.9 0 1 130.06 148.73
  L 130.57 147.43
  Q 130.83 146.75 130.10 146.75
  L 128.51 146.75
  A 0.68 0.68 0.0 0 0 127.84 147.31
  L 127.54 149.10
  Q 127.46 149.54 127.01 149.51
  Q 125.87 149.43 125.57 150.20
  Q 125.42 150.58 125.62 150.93
  Q 126.02 151.64 126.69 151.50
  Q 127.36 151.36 127.23 152.03"
/>
<path stroke="#9493a5" vector-effect="non-scaling-stroke" d="
  M 136.37 149.77
  L 134.72 149.46
  Q 134.00 149.33 133.87 150.06
  L 132.19 160.18
  A 0.55 0.54 -86.1 0 0 132.74 160.82
  L 133.98 160.79
  Q 134.47 160.77 134.56 160.28
  L 135.82 153.48
  A 2.15 2.14 -81.2 0 1 138.19 151.74
  Q 140.09 151.98 139.70 149.91
  A 1.01 1.00 72.9 0 0 138.31 149.17
  L 137.18 149.67
  Q 136.79 149.84 136.37 149.77"
/>
<path stroke="#9493a5" vector-effect="non-scaling-stroke" d="
  M 142.6973 160.6818
  A 6.01 5.03 111.5 0 0 149.5800 156.9335
  A 6.01 5.03 111.5 0 0 147.1027 149.4982
  A 6.01 5.03 111.5 0 0 140.2200 153.2465
  A 6.01 5.03 111.5 0 0 142.6973 160.6818"
/>
<path stroke="#9493a5" vector-effect="non-scaling-stroke" d="
  M 155.11 149.97
  Q 154.46 149.23 153.44 149.54
  A 0.72 0.71 -4.0 0 0 152.94 150.11
  L 151.22 160.10
  Q 151.13 160.64 151.66 160.75
  L 152.75 160.97
  Q 153.49 161.12 153.63 160.37
  C 154.12 157.69 153.94 151.38 157.56 151.30
  A 1.48 1.48 0.0 0 1 159.06 153.03
  L 157.86 160.14
  Q 157.76 160.75 158.37 160.75
  L 159.71 160.75
  Q 160.27 160.75 160.37 160.20
  C 161.18 155.99 163.86 146.55 155.95 150.15
  Q 155.46 150.37 155.11 149.97"
/>
<path stroke="#9493a5" vector-effect="non-scaling-stroke" d="
  M 169.84 160.96
  L 167.62 163.27
  Q 167.19 163.72 166.62 163.47
  L 163.96 162.29
  A 0.54 0.52 29.8 0 0 163.31 162.46
  L 162.75 163.24
  Q 162.43 163.70 162.92 163.96
  C 173.09 169.59 172.87 155.87 174.09 150.63
  A 1.14 1.14 0.0 0 0 172.30 149.46
  L 171.46 150.09
  Q 171.10 150.36 170.73 150.11
  C 163.00 144.90 159.41 164.57 169.41 160.34
  A 0.39 0.39 0.0 0 1 169.84 160.96"
/>
<path stroke="#9493a5" vector-effect="non-scaling-stroke" d="
  M 148.96 106.79
  C 148.10 100.05 139.89 100.01 139.10 107.06
  Q 138.17 115.40 139.25 124.74
  C 139.99 131.10 148.27 130.73 149.02 124.00
  Q 150.01 115.08 148.96 106.79"
/>
<path stroke="#9493a5" vector-effect="non-scaling-stroke" d="
  M 118.40 118.65
  C 117.04 114.88 111.99 114.12 109.36 116.61
  C 103.74 121.94 112.51 135.53 117.92 126.33
  Q 119.93 122.92 118.40 118.65"
/>
<path stroke="#9493a5" vector-effect="non-scaling-stroke" d="
  M 175.1441 112.0497
  A 5.17 4.51 89.4 0 0 179.5998 106.8328
  A 5.17 4.51 89.4 0 0 175.0359 101.7103
  A 5.17 4.51 89.4 0 0 170.5802 106.9272
  A 5.17 4.51 89.4 0 0 175.1441 112.0497"
/>
<path stroke="#9493a5" vector-effect="non-scaling-stroke" d="
  M 180.51 123.73
  A 5.47 5.47 0.0 0 0 175.04 118.26
  A 5.47 5.47 0.0 0 0 169.57 123.73
  A 5.47 5.47 0.0 0 0 175.04 129.20
  A 5.47 5.47 0.0 0 0 180.51 123.73"
/>
<path stroke="#9493a5" vector-effect="non-scaling-stroke" d="
  M 144.0433 158.8402
  A 3.85 2.52 102.4 0 0 147.3312 155.6211
  A 3.85 2.52 102.4 0 0 145.6967 151.3198
  A 3.85 2.52 102.4 0 0 142.4088 154.5389
  A 3.85 2.52 102.4 0 0 144.0433 158.8402"
/>
<path stroke="#9493a5" vector-effect="non-scaling-stroke" d="
  M 170.22 151.76
  C 166.40 150.15 165.63 155.03 166.11 157.47
  A 1.77 1.77 0.0 0 0 168.12 158.88
  C 170.97 158.43 170.32 155.14 170.89 153.16
  A 1.17 1.16 -70.6 0 0 170.22 151.76"
/>
</g>
<path fill="#ffffff" d="
  M 0.00 0.00
  L 289.00 0.00
  L 289.00 276.00
  L 0.00 276.00
  L 0.00 0.00
  Z
  M 115.98 9.44
  Q 102.73 12.62 90.82 18.57
  Q 65.89 30.77 49.14 51.76
  Q 39.70 63.04 33.67 75.93
  C 20.56 101.87 17.90 132.77 24.86 160.68
  L 24.71 161.57
  Q 24.63 162.06 24.14 161.99
  L 23.81 161.95
  Q 23.39 161.89 23.49 162.31
  C 25.16 168.62 34.32 173.59 38.10 165.99
  Q 38.32 165.55 38.29 165.05
  C 38.17 162.90 38.65 162.08 40.77 161.46
  Q 49.47 158.87 58.93 156.11
  Q 60.46 155.66 60.58 157.26
  Q 60.91 162.07 61.40 167.64
  C 61.61 170.02 62.90 171.55 63.94 173.62
  Q 64.17 174.07 64.65 174.24
  L 65.65 174.58
  Q 66.23 174.78 66.43 175.37
  L 68.39 181.12
  Q 68.55 181.57 68.94 181.85
  C 72.05 184.05 73.21 186.51 75.31 189.60
  C 76.48 191.34 76.93 193.29 79.25 194.58
  C 82.41 196.34 84.21 198.45 86.67 200.83
  C 87.56 201.69 88.77 201.89 89.62 202.83
  C 94.05 207.80 100.73 212.14 106.39 215.63
  Q 107.50 216.32 108.46 217.31
  Q 108.83 217.69 109.34 217.54
  C 112.43 216.63 115.35 219.33 118.58 219.77
  Q 121.60 220.19 123.39 220.77
  C 133.15 223.94 145.59 224.45 155.00 224.34
  C 156.90 224.31 158.16 225.42 160.04 223.38
  A 1.55 1.49 14.6 0 1 160.86 222.92
  Q 167.37 221.65 174.74 219.19
  C 176.55 218.59 177.39 217.70 179.20 217.22
  Q 183.69 216.01 187.04 212.70
  A 1.70 1.66 -72.4 0 1 187.86 212.26
  C 191.16 211.60 193.07 209.40 195.95 208.32
  C 199.02 207.16 201.15 206.17 203.46 203.53
  Q 206.63 199.91 210.47 196.98
  C 211.89 195.90 212.46 194.43 213.84 193.24
  Q 214.22 192.91 214.41 192.45
  Q 217.95 183.92 223.17 176.34
  Q 226.35 171.74 227.24 168.97
  Q 229.00 163.54 228.70 157.58
  A 0.95 0.95 0.0 0 1 229.13 156.73
  C 230.85 155.59 232.65 156.86 234.10 157.29
  Q 246.17 160.83 258.37 164.71
  Q 258.83 164.86 258.96 164.40
  C 267.32 135.34 265.05 105.94 252.19 78.38
  A 0.88 0.86 54.4 0 1 252.34 77.43
  L 255.18 74.36
  Q 255.45 74.07 255.48 73.68
  L 255.73 70.76
  C 261.92 59.68 253.55 47.91 241.36 48.20
  C 240.24 48.22 238.99 49.24 237.94 48.07
  Q 213.29 20.41 177.77 10.39
  Q 160.67 5.77 142.98 5.95
  Q 129.33 6.29 115.98 9.44
  Z"
/>
<path fill="#fde453" d="
  M 142.98 5.95
  Q 143.79 7.79 147.43 6.94
  Q 148.09 6.79 148.32 7.42
  L 149.83 11.60
  Q 149.99 12.05 150.35 12.38
  C 152.96 14.77 150.59 18.05 147.83 18.43
  L 129.73 19.32
  Q 129.83 19.18 129.21 18.78
  A 0.11 0.11 0.0 0 1 129.23 18.59
  Q 129.38 18.54 129.56 18.49
  A 0.19 0.19 0.0 0 0 129.48 18.11
  L 123.29 18.90
  Q 122.72 18.97 122.40 19.46
  Q 121.52 20.80 120.06 19.98
  A 0.52 0.51 35.1 0 1 119.92 19.20
  Q 120.27 18.79 120.58 19.21
  Q 120.92 19.66 121.21 19.18
  C 123.67 15.12 118.77 15.08 120.01 11.28
  A 0.59 0.58 -76.5 0 0 119.54 10.51
  Q 118.66 10.38 117.98 10.90
  A 0.98 0.96 -59.6 0 1 117.24 11.10
  Q 115.80 10.89 115.98 9.44
  Q 129.33 6.29 142.98 5.95
  Z"
/>
<path fill="#bef851" d="
  M 142.98 5.95
  Q 160.67 5.77 177.77 10.39
  Q 176.84 11.53 177.47 11.79
  Q 181.20 13.35 184.98 14.04
  A 1.24 1.24 0.0 0 1 185.89 15.76
  Q 185.83 15.90 185.75 16.02
  Q 185.43 16.49 186.00 16.51
  Q 186.97 16.55 187.11 17.44
  C 187.39 19.35 189.42 23.95 189.15 24.73
  Q 188.97 25.25 189.52 25.25
  L 190.56 25.25
  A 0.63 0.63 0.0 0 1 191.18 25.96
  L 190.86 28.30
  Q 170.23 18.93 147.83 18.43
  C 150.59 18.05 152.96 14.77 150.35 12.38
  Q 149.99 12.05 149.83 11.60
  L 148.32 7.42
  Q 148.09 6.79 147.43 6.94
  Q 143.79 7.79 142.98 5.95
  Z"
/>
<path fill="#fdc752" d="
  M 115.98 9.44
  Q 115.80 10.89 117.24 11.10
  A 0.98 0.96 -59.6 0 0 117.98 10.90
  Q 118.66 10.38 119.54 10.51
  A 0.59 0.58 -76.5 0 1 120.01 11.28
  C 118.77 15.08 123.67 15.12 121.21 19.18
  Q 120.92 19.66 120.58 19.21
  Q 120.27 18.79 119.92 19.20
  A 0.52 0.51 35.1 0 0 120.06 19.98
  Q 121.52 20.80 122.40 19.46
  Q 122.72 18.97 123.29 18.90
  L 129.48 18.11
  A 0.19 0.19 0.0 0 1 129.56 18.49
  Q 129.38 18.54 129.23 18.59
  A 0.11 0.11 0.0 0 0 129.21 18.78
  Q 129.83 19.18 129.73 19.32
  Q 109.96 22.32 92.26 31.70
  Q 92.44 30.21 91.19 29.03
  Q 90.85 28.71 90.69 28.27
  L 88.38 21.85
  A 0.32 0.32 0.0 0 1 88.55 21.45
  Q 91.65 20.09 90.82 18.57
  Q 102.73 12.62 115.98 9.44
  Z"
/>
<path fill="#79ff53" d="
  M 177.77 10.39
  Q 213.29 20.41 237.94 48.07
  C 238.99 49.24 240.24 48.22 241.36 48.20
  C 253.55 47.91 261.92 59.68 255.73 70.76
  C 245.36 86.70 223.36 75.67 228.80 56.99
  Q 228.94 56.52 228.62 56.15
  Q 212.75 38.26 190.86 28.30
  L 191.18 25.96
  A 0.63 0.63 0.0 0 0 190.56 25.25
  L 189.52 25.25
  Q 188.97 25.25 189.15 24.73
  C 189.42 23.95 187.39 19.35 187.11 17.44
  Q 186.97 16.55 186.00 16.51
  Q 185.43 16.49 185.75 16.02
  Q 185.83 15.90 185.89 15.76
  A 1.24 1.24 0.0 0 0 184.98 14.04
  Q 181.20 13.35 177.47 11.79
  Q 176.84 11.53 177.77 10.39
  Z
  M 251.01 63.27
  A 8.26 8.26 0.0 0 0 242.75 55.01
  A 8.26 8.26 0.0 0 0 234.49 63.27
  A 8.26 8.26 0.0 0 0 242.75 71.53
  A 8.26 8.26 0.0 0 0 251.01 63.27
  Z"
/>
<path fill="#f0eded" d="
  M 147.83 18.43
  Q 170.23 18.93 190.86 28.30
  Q 212.75 38.26 228.62 56.15
  Q 228.94 56.52 228.80 56.99
  C 223.36 75.67 245.36 86.70 255.73 70.76
  L 255.48 73.68
  Q 255.45 74.07 255.18 74.36
  L 252.34 77.43
  A 0.88 0.86 54.4 0 0 252.19 78.38
  C 265.05 105.94 267.32 135.34 258.96 164.40
  Q 258.83 164.86 258.37 164.71
  Q 246.17 160.83 234.10 157.29
  C 232.65 156.86 230.85 155.59 229.13 156.73
  A 0.95 0.95 0.0 0 0 228.70 157.58
  Q 229.00 163.54 227.24 168.97
  Q 226.35 171.74 223.17 176.34
  Q 217.95 183.92 214.41 192.45
  Q 214.22 192.91 213.84 193.24
  C 212.46 194.43 211.89 195.90 210.47 196.98
  Q 206.63 199.91 203.46 203.53
  C 201.15 206.17 199.02 207.16 195.95 208.32
  C 193.07 209.40 191.16 211.60 187.86 212.26
  A 1.70 1.66 -72.4 0 0 187.04 212.70
  Q 183.69 216.01 179.20 217.22
  C 177.39 217.70 176.55 218.59 174.74 219.19
  Q 167.37 221.65 160.86 222.92
  A 1.55 1.49 14.6 0 0 160.04 223.38
  C 158.16 225.42 156.90 224.31 155.00 224.34
  C 145.59 224.45 133.15 223.94 123.39 220.77
  Q 121.60 220.19 118.58 219.77
  C 115.35 219.33 112.43 216.63 109.34 217.54
  Q 108.83 217.69 108.46 217.31
  Q 107.50 216.32 106.39 215.63
  C 100.73 212.14 94.05 207.80 89.62 202.83
  C 88.77 201.89 87.56 201.69 86.67 200.83
  C 84.21 198.45 82.41 196.34 79.25 194.58
  C 76.93 193.29 76.48 191.34 75.31 189.60
  C 73.21 186.51 72.05 184.05 68.94 181.85
  Q 68.55 181.57 68.39 181.12
  L 66.43 175.37
  Q 66.23 174.78 65.65 174.58
  L 64.65 174.24
  Q 64.17 174.07 63.94 173.62
  C 62.90 171.55 61.61 170.02 61.40 167.64
  Q 60.91 162.07 60.58 157.26
  Q 60.46 155.66 58.93 156.11
  Q 49.47 158.87 40.77 161.46
  C 38.65 162.08 38.17 162.90 38.29 165.05
  Q 38.32 165.55 38.10 165.99
  C 34.32 173.59 25.16 168.62 23.49 162.31
  Q 23.39 161.89 23.81 161.95
  L 24.14 161.99
  Q 24.63 162.06 24.71 161.57
  L 24.86 160.68
  C 26.12 164.90 29.84 166.47 33.66 164.25
  C 38.14 161.64 36.54 158.01 35.75 153.78
  C 31.75 132.34 32.87 111.40 40.62 91.09
  Q 45.88 76.85 54.79 64.55
  Q 69.76 43.93 92.26 31.70
  Q 109.96 22.32 129.73 19.32
  L 147.83 18.43
  Z
  M 213.81 102.10
  Q 219.21 92.06 224.69 82.41
  C 227.53 77.40 223.41 75.82 219.15 76.59
  Q 209.40 78.36 199.52 79.83
  Q 182.53 62.39 159.40 57.66
  C 119.24 49.45 80.67 76.57 72.81 116.25
  C 66.07 150.26 84.54 184.86 116.55 198.24
  C 171.37 221.15 228.91 173.91 217.67 115.57
  Q 216.56 109.81 213.81 102.10
  Z"
/>
<path fill="#fc9d52" d="
  M 90.82 18.57
  Q 91.65 20.09 88.55 21.45
  A 0.32 0.32 0.0 0 0 88.38 21.85
  L 90.69 28.27
  Q 90.85 28.71 91.19 29.03
  Q 92.44 30.21 92.26 31.70
  Q 69.76 43.93 54.79 64.55
  Q 54.29 63.85 53.68 63.97
  Q 53.27 64.05 52.91 64.67
  Q 51.42 67.27 49.52 69.64
  Q 49.04 70.23 48.87 69.49
  Q 47.80 64.90 44.51 61.37
  Q 44.22 61.06 44.47 60.72
  Q 47.57 56.58 49.14 51.76
  Q 65.89 30.77 90.82 18.57
  Z"
/>
<path fill="#fb7053" d="
  M 49.14 51.76
  Q 47.57 56.58 44.47 60.72
  Q 44.22 61.06 44.51 61.37
  Q 47.80 64.90 48.87 69.49
  Q 49.04 70.23 49.52 69.64
  Q 51.42 67.27 52.91 64.67
  Q 53.27 64.05 53.68 63.97
  Q 54.29 63.85 54.79 64.55
  Q 45.88 76.85 40.62 91.09
  Q 39.29 90.93 38.33 91.80
  Q 37.89 92.20 37.54 91.72
  L 36.23 89.96
  Q 35.98 89.62 35.60 89.44
  L 34.63 88.99
  Q 34.03 88.71 34.36 88.13
  Q 35.34 86.40 33.65 85.33
  A 0.57 0.56 -51.0 0 0 32.96 85.41
  L 32.55 85.83
  A 0.35 0.35 0.0 0 1 31.95 85.59
  Q 31.86 80.84 34.66 77.05
  A 0.65 0.65 0.0 0 0 34.23 76.02
  L 33.67 75.93
  Q 39.70 63.04 49.14 51.76
  Z"
/>
<path fill="#f0eded" d="
  M 251.01 63.27
  A 8.26 8.26 0.0 0 1 242.75 71.53
  A 8.26 8.26 0.0 0 1 234.49 63.27
  A 8.26 8.26 0.0 0 1 242.75 55.01
  A 8.26 8.26 0.0 0 1 251.01 63.27
  Z
  M 246.49 63.24
  A 3.71 3.71 0.0 0 0 242.78 59.53
  A 3.71 3.71 0.0 0 0 239.07 63.24
  A 3.71 3.71 0.0 0 0 242.78 66.95
  A 3.71 3.71 0.0 0 0 246.49 63.24
  Z"
/>
<path fill="#ffffff" d="
  M 199.52 79.83
  Q 208.34 89.84 213.81 102.10
  Q 216.56 109.81 217.67 115.57
  C 228.91 173.91 171.37 221.15 116.55 198.24
  C 84.54 184.86 66.07 150.26 72.81 116.25
  C 80.67 76.57 119.24 49.45 159.40 57.66
  Q 182.53 62.39 199.52 79.83
  Z
  M 148.00 96.39
  C 140.81 94.06 133.46 97.97 131.84 105.59
  Q 130.18 113.40 131.65 123.48
  Q 133.65 137.07 147.55 134.69
  C 158.62 132.79 157.02 118.04 156.92 110.04
  C 156.84 103.82 154.06 98.35 148.00 96.39
  Z
  M 108.10 111.00
  Q 110.67 102.12 120.08 102.17
  Q 120.71 102.17 120.72 101.55
  L 120.82 96.42
  A 0.55 0.55 0.0 0 0 120.23 95.86
  C 90.67 97.45 96.42 142.53 118.05 134.70
  C 133.65 129.05 126.45 100.91 108.54 111.34
  Q 107.89 111.72 108.10 111.00
  Z
  M 167.49 115.21
  Q 161.54 118.90 162.20 125.61
  C 163.59 139.60 190.60 138.97 187.72 121.48
  Q 187.11 117.78 182.62 115.33
  Q 182.04 115.02 182.59 114.64
  C 187.95 111.00 189.02 104.08 184.53 99.45
  C 178.77 93.52 165.84 94.70 163.28 103.61
  Q 161.40 110.12 167.51 114.68
  Q 167.89 114.96 167.49 115.21
  Z
  M 117.25 151.10
  A 1.21 1.21 0.0 0 1 116.66 149.42
  Q 117.98 146.95 120.79 147.58
  Q 121.46 147.73 121.67 148.38
  L 122.05 149.54
  Q 122.23 150.09 122.81 150.03
  L 123.94 149.92
  Q 124.59 149.85 124.54 149.21
  C 124.07 142.26 110.88 145.76 114.82 151.81
  C 115.83 153.37 118.24 154.10 119.97 154.94
  A 1.73 1.73 0.0 0 1 120.35 157.80
  Q 118.56 159.37 116.25 158.52
  Q 115.76 158.34 115.64 157.84
  Q 115.12 155.75 112.93 156.30
  Q 112.32 156.45 112.46 157.06
  C 114.33 165.66 133.35 157.85 117.25 151.10
  Z
  M 127.23 152.03
  C 126.84 154.04 125.66 157.75 126.49 159.59
  C 127.13 161.01 128.82 161.33 130.07 160.55
  A 0.88 0.88 0.0 0 0 129.67 158.93
  Q 128.98 158.87 128.72 158.22
  Q 128.58 157.83 128.70 157.15
  Q 129.19 154.52 129.60 151.83
  Q 129.69 151.25 130.28 151.25
  L 131.19 151.25
  Q 131.87 151.25 131.87 150.56
  L 131.88 150.27
  Q 131.88 149.66 131.27 149.58
  L 130.50 149.48
  A 0.56 0.55 14.9 0 1 130.06 148.73
  L 130.57 147.43
  Q 130.83 146.75 130.10 146.75
  L 128.51 146.75
  A 0.68 0.68 0.0 0 0 127.84 147.31
  L 127.54 149.10
  Q 127.46 149.54 127.01 149.51
  Q 125.87 149.43 125.57 150.20
  Q 125.42 150.58 125.62 150.93
  Q 126.02 151.64 126.69 151.50
  Q 127.36 151.36 127.23 152.03
  Z
  M 136.37 149.77
  L 134.72 149.46
  Q 134.00 149.33 133.87 150.06
  L 132.19 160.18
  A 0.55 0.54 -86.1 0 0 132.74 160.82
  L 133.98 160.79
  Q 134.47 160.77 134.56 160.28
  L 135.82 153.48
  A 2.15 2.14 -81.2 0 1 138.19 151.74
  Q 140.09 151.98 139.70 149.91
  A 1.01 1.00 72.9 0 0 138.31 149.17
  L 137.18 149.67
  Q 136.79 149.84 136.37 149.77
  Z
  M 142.6973 160.6818
  A 6.01 5.03 111.5 0 0 149.5800 156.9335
  A 6.01 5.03 111.5 0 0 147.1027 149.4982
  A 6.01 5.03 111.5 0 0 140.2200 153.2465
  A 6.01 5.03 111.5 0 0 142.6973 160.6818
  Z
  M 155.11 149.97
  Q 154.46 149.23 153.44 149.54
  A 0.72 0.71 -4.0 0 0 152.94 150.11
  L 151.22 160.10
  Q 151.13 160.64 151.66 160.75
  L 152.75 160.97
  Q 153.49 161.12 153.63 160.37
  C 154.12 157.69 153.94 151.38 157.56 151.30
  A 1.48 1.48 0.0 0 1 159.06 153.03
  L 157.86 160.14
  Q 157.76 160.75 158.37 160.75
  L 159.71 160.75
  Q 160.27 160.75 160.37 160.20
  C 161.18 155.99 163.86 146.55 155.95 150.15
  Q 155.46 150.37 155.11 149.97
  Z
  M 169.84 160.96
  L 167.62 163.27
  Q 167.19 163.72 166.62 163.47
  L 163.96 162.29
  A 0.54 0.52 29.8 0 0 163.31 162.46
  L 162.75 163.24
  Q 162.43 163.70 162.92 163.96
  C 173.09 169.59 172.87 155.87 174.09 150.63
  A 1.14 1.14 0.0 0 0 172.30 149.46
  L 171.46 150.09
  Q 171.10 150.36 170.73 150.11
  C 163.00 144.90 159.41 164.57 169.41 160.34
  A 0.39 0.39 0.0 0 1 169.84 160.96
  Z"
/>
<circle fill="#79ff53" cx="242.78" cy="63.24" r="3.71"/>
<path fill="#fb4c53" d="
  M 33.67 75.93
  L 34.23 76.02
  A 0.65 0.65 0.0 0 1 34.66 77.05
  Q 31.86 80.84 31.95 85.59
  A 0.35 0.35 0.0 0 0 32.55 85.83
  L 32.96 85.41
  A 0.57 0.56 -51.0 0 1 33.65 85.33
  Q 35.34 86.40 34.36 88.13
  Q 34.03 88.71 34.63 88.99
  L 35.60 89.44
  Q 35.98 89.62 36.23 89.96
  L 37.54 91.72
  Q 37.89 92.20 38.33 91.80
  Q 39.29 90.93 40.62 91.09
  C 32.87 111.40 31.75 132.34 35.75 153.78
  C 36.54 158.01 38.14 161.64 33.66 164.25
  C 29.84 166.47 26.12 164.90 24.86 160.68
  C 17.90 132.77 20.56 101.87 33.67 75.93
  Z"
/>
<path fill="#28264b" d="
  M 213.81 102.10
  Q 208.34 89.84 199.52 79.83
  Q 209.40 78.36 219.15 76.59
  C 223.41 75.82 227.53 77.40 224.69 82.41
  Q 219.21 92.06 213.81 102.10
  Z"
/>
<path fill="#28264b" d="
  M 148.00 96.39
  C 154.06 98.35 156.84 103.82 156.92 110.04
  C 157.02 118.04 158.62 132.79 147.55 134.69
  Q 133.65 137.07 131.65 123.48
  Q 130.18 113.40 131.84 105.59
  C 133.46 97.97 140.81 94.06 148.00 96.39
  Z
  M 148.96 106.79
  C 148.10 100.05 139.89 100.01 139.10 107.06
  Q 138.17 115.40 139.25 124.74
  C 139.99 131.10 148.27 130.73 149.02 124.00
  Q 150.01 115.08 148.96 106.79
  Z"
/>
<path fill="#28264b" d="
  M 108.54 111.34
  C 126.45 100.91 133.65 129.05 118.05 134.70
  C 96.42 142.53 90.67 97.45 120.23 95.86
  A 0.55 0.55 0.0 0 1 120.82 96.42
  L 120.72 101.55
  Q 120.71 102.17 120.08 102.17
  Q 110.67 102.12 108.10 111.00
  Q 107.89 111.72 108.54 111.34
  Z
  M 118.40 118.65
  C 117.04 114.88 111.99 114.12 109.36 116.61
  C 103.74 121.94 112.51 135.53 117.92 126.33
  Q 119.93 122.92 118.40 118.65
  Z"
/>
<path fill="#28264b" d="
  M 167.51 114.68
  Q 161.40 110.12 163.28 103.61
  C 165.84 94.70 178.77 93.52 184.53 99.45
  C 189.02 104.08 187.95 111.00 182.59 114.64
  Q 182.04 115.02 182.62 115.33
  Q 187.11 117.78 187.72 121.48
  C 190.60 138.97 163.59 139.60 162.20 125.61
  Q 161.54 118.90 167.49 115.21
  Q 167.89 114.96 167.51 114.68
  Z
  M 175.1441 112.0497
  A 5.17 4.51 89.4 0 0 179.5998 106.8328
  A 5.17 4.51 89.4 0 0 175.0359 101.7103
  A 5.17 4.51 89.4 0 0 170.5802 106.9272
  A 5.17 4.51 89.4 0 0 175.1441 112.0497
  Z
  M 180.51 123.73
  A 5.47 5.47 0.0 0 0 175.04 118.26
  A 5.47 5.47 0.0 0 0 169.57 123.73
  A 5.47 5.47 0.0 0 0 175.04 129.20
  A 5.47 5.47 0.0 0 0 180.51 123.73
  Z"
/>
<path fill="#ffffff" d="
  M 139.10 107.06
  C 139.89 100.01 148.10 100.05 148.96 106.79
  Q 150.01 115.08 149.02 124.00
  C 148.27 130.73 139.99 131.10 139.25 124.74
  Q 138.17 115.40 139.10 107.06
  Z"
/>
<ellipse fill="#ffffff" cx="0.00" cy="0.00" transform="translate(175.09,106.88) rotate(89.4)" rx="5.17" ry="4.51"/>
<path fill="#ffffff" d="
  M 109.36 116.61
  C 111.99 114.12 117.04 114.88 118.40 118.65
  Q 119.93 122.92 117.92 126.33
  C 112.51 135.53 103.74 121.94 109.36 116.61
  Z"
/>
<circle fill="#ffffff" cx="175.04" cy="123.73" r="5.47"/>
<path fill="#28264b" d="
  M 117.25 151.10
  C 133.35 157.85 114.33 165.66 112.46 157.06
  Q 112.32 156.45 112.93 156.30
  Q 115.12 155.75 115.64 157.84
  Q 115.76 158.34 116.25 158.52
  Q 118.56 159.37 120.35 157.80
  A 1.73 1.73 0.0 0 0 119.97 154.94
  C 118.24 154.10 115.83 153.37 114.82 151.81
  C 110.88 145.76 124.07 142.26 124.54 149.21
  Q 124.59 149.85 123.94 149.92
  L 122.81 150.03
  Q 122.23 150.09 122.05 149.54
  L 121.67 148.38
  Q 121.46 147.73 120.79 147.58
  Q 117.98 146.95 116.66 149.42
  A 1.21 1.21 0.0 0 0 117.25 151.10
  Z"
/>
<path fill="#28264b" d="
  M 126.69 151.50
  Q 126.02 151.64 125.62 150.93
  Q 125.42 150.58 125.57 150.20
  Q 125.87 149.43 127.01 149.51
  Q 127.46 149.54 127.54 149.10
  L 127.84 147.31
  A 0.68 0.68 0.0 0 1 128.51 146.75
  L 130.10 146.75
  Q 130.83 146.75 130.57 147.43
  L 130.06 148.73
  A 0.56 0.55 14.9 0 0 130.50 149.48
  L 131.27 149.58
  Q 131.88 149.66 131.88 150.27
  L 131.87 150.56
  Q 131.87 151.25 131.19 151.25
  L 130.28 151.25
  Q 129.69 151.25 129.60 151.83
  Q 129.19 154.52 128.70 157.15
  Q 128.58 157.83 128.72 158.22
  Q 128.98 158.87 129.67 158.93
  A 0.88 0.88 0.0 0 1 130.07 160.55
  C 128.82 161.33 127.13 161.01 126.49 159.59
  C 125.66 157.75 126.84 154.04 127.23 152.03
  Q 127.36 151.36 126.69 151.50
  Z"
/>
<path fill="#28264b" d="
  M 137.18 149.67
  L 138.31 149.17
  A 1.01 1.00 72.9 0 1 139.70 149.91
  Q 140.09 151.98 138.19 151.74
  A 2.15 2.14 -81.2 0 0 135.82 153.48
  L 134.56 160.28
  Q 134.47 160.77 133.98 160.79
  L 132.74 160.82
  A 0.55 0.54 -86.1 0 1 132.19 160.18
  L 133.87 150.06
  Q 134.00 149.33 134.72 149.46
  L 136.37 149.77
  Q 136.79 149.84 137.18 149.67
  Z"
/>
<path fill="#28264b" d="
  M 142.6973 160.6818
  A 6.01 5.03 111.5 0 1 140.2200 153.2465
  A 6.01 5.03 111.5 0 1 147.1027 149.4982
  A 6.01 5.03 111.5 0 1 149.5800 156.9335
  A 6.01 5.03 111.5 0 1 142.6973 160.6818
  Z
  M 144.0433 158.8402
  A 3.85 2.52 102.4 0 0 147.3312 155.6211
  A 3.85 2.52 102.4 0 0 145.6967 151.3198
  A 3.85 2.52 102.4 0 0 142.4088 154.5389
  A 3.85 2.52 102.4 0 0 144.0433 158.8402
  Z"
/>
<path fill="#28264b" d="
  M 155.95 150.15
  C 163.86 146.55 161.18 155.99 160.37 160.20
  Q 160.27 160.75 159.71 160.75
  L 158.37 160.75
  Q 157.76 160.75 157.86 160.14
  L 159.06 153.03
  A 1.48 1.48 0.0 0 0 157.56 151.30
  C 153.94 151.38 154.12 157.69 153.63 160.37
  Q 153.49 161.12 152.75 160.97
  L 151.66 160.75
  Q 151.13 160.64 151.22 160.10
  L 152.94 150.11
  A 0.72 0.71 -4.0 0 1 153.44 149.54
  Q 154.46 149.23 155.11 149.97
  Q 155.46 150.37 155.95 150.15
  Z"
/>
<path fill="#28264b" d="
  M 169.41 160.34
  C 159.41 164.57 163.00 144.90 170.73 150.11
  Q 171.10 150.36 171.46 150.09
  L 172.30 149.46
  A 1.14 1.14 0.0 0 1 174.09 150.63
  C 172.87 155.87 173.09 169.59 162.92 163.96
  Q 162.43 163.70 162.75 163.24
  L 163.31 162.46
  A 0.54 0.52 29.8 0 1 163.96 162.29
  L 166.62 163.47
  Q 167.19 163.72 167.62 163.27
  L 169.84 160.96
  A 0.39 0.39 0.0 0 0 169.41 160.34
  Z
  M 170.22 151.76
  C 166.40 150.15 165.63 155.03 166.11 157.47
  A 1.77 1.77 0.0 0 0 168.12 158.88
  C 170.97 158.43 170.32 155.14 170.89 153.16
  A 1.17 1.16 -70.6 0 0 170.22 151.76
  Z"
/>
<path fill="#ffffff" d="
  M 170.22 151.76
  A 1.17 1.16 -70.6 0 1 170.89 153.16
  C 170.32 155.14 170.97 158.43 168.12 158.88
  A 1.77 1.77 0.0 0 1 166.11 157.47
  C 165.63 155.03 166.40 150.15 170.22 151.76
  Z"
/>
<ellipse fill="#ffffff" cx="0.00" cy="0.00" transform="translate(144.87,155.08) rotate(102.4)" rx="3.85" ry="2.52"/>
</svg>
