<?xml version="1.0" encoding="UTF-8"?>
<!DOCTYPE svg PUBLIC "-//W3C//DTD SVG 1.1//EN" "http://www.w3.org/Graphics/SVG/1.1/DTD/svg11.dtd">
<!-- Creator: CorelDRAW X7 -->
<svg xmlns="http://www.w3.org/2000/svg" xml:space="preserve" width="8.5in" height="11in" version="1.1" style="shape-rendering:geometricPrecision; text-rendering:geometricPrecision; image-rendering:optimizeQuality; fill-rule:evenodd; clip-rule:evenodd"
viewBox="0 0 8500 11000"
 xmlns:xlink="http://www.w3.org/1999/xlink">
 <defs>
  <style type="text/css">
   <![CDATA[
    .fil0 {fill:#373435}
   ]]>
  </style>
 </defs>
 <g id="Layer_x0020_1">
  <metadata id="CorelCorpID_0Corel-Layer"/>
  <path class="fil0" d="M2650 4275c-114,172 -135,176 -233,380 -157,329 -214,725 -169,1088 58,476 278,969 774,1359 320,252 730,392 1110,413 1244,68 2272,-992 2120,-2256 -57,-475 -279,-967 -774,-1359 -235,-187 -502,-295 -748,-360 -470,-124 -987,-43 -1415,173 -202,102 -518,339 -665,562zm1520 -625c-34,-16 -238,19 -294,30 -201,42 -390,114 -570,219 -70,40 -221,139 -278,201 172,144 458,179 672,109 106,-35 219,-101 312,-211 78,-93 155,-255 158,-348zm-1070 1050c359,297 792,299 1122,77 276,-185 390,-531 368,-834 -4,-48 -28,-239 -49,-277 -42,-11 -172,-26 -206,-19 -22,46 -22,228 -185,430 -300,374 -808,437 -1236,138 -22,13 -102,102 -118,127 -13,20 -19,13 24,60 21,22 36,39 55,61 72,83 136,164 225,237zm-546 38c26,26 195,150 270,217 83,73 157,147 229,226 148,164 254,319 455,438 741,439 1550,-35 1571,-850 6,-215 -74,-495 -101,-738 -5,-45 -24,-213 -21,-246 -52,-37 -182,-64 -239,-84 -5,20 19,129 24,177 114,1148 -1189,1631 -1903,785 -32,-38 -115,-143 -151,-169 -58,77 -93,166 -134,244zm-150 543c26,26 126,87 166,114 59,41 115,85 172,131 115,93 216,185 315,286 188,193 332,414 572,573 418,276 884,295 1274,96 213,-108 416,-306 523,-546 107,-241 125,-426 119,-646 -5,-183 -71,-420 -99,-621 -24,-173 -38,-301 -47,-470 -3,-41 -9,-119 -4,-158 -49,-44 -226,-165 -273,-179 -11,54 56,434 71,512 38,187 56,329 36,522 -86,824 -959,1311 -1720,906 -426,-227 -515,-554 -1014,-906 -35,55 -87,321 -91,386zm3156 -1097c-18,63 57,551 65,604 40,251 79,312 79,599 1,677 -484,1314 -1229,1378 -460,40 -919,-155 -1238,-513 -204,-231 -316,-373 -575,-587 -69,-58 -195,-161 -268,-197 -9,29 2,163 5,203 6,74 16,135 31,207 26,127 73,282 133,404 136,281 334,555 652,765 799,527 1868,371 2467,-361 400,-489 526,-1137 351,-1707 -41,-135 -92,-268 -168,-400 -68,-116 -189,-295 -305,-395z"/>
 </g>
</svg>
