<?xml version="1.0" encoding="UTF-8" standalone="no"?>
<!DOCTYPE svg PUBLIC "-//W3C//DTD SVG 1.1//EN" "http://www.w3.org/Graphics/SVG/1.1/DTD/svg11.dtd">
<svg width="100%" height="100%" viewBox="0 0 413 88" version="1.1" xmlns="http://www.w3.org/2000/svg" xmlns:xlink="http://www.w3.org/1999/xlink" xml:space="preserve" xmlns:serif="http://www.serif.com/" style="fill-rule:evenodd;clip-rule:evenodd;stroke-linejoin:round;stroke-miterlimit:2;">
    <g transform="matrix(1,0,0,1,-128.072,-294.377)">
        <g id="Layer_x0020_1">
            <path d="M137.016,311.472C134.568,315.216 134.136,315.288 132.048,319.68C128.664,326.808 127.44,335.376 128.376,343.152C129.6,353.448 134.352,364.104 145.08,372.456C151.992,377.928 160.848,380.952 169.056,381.384C195.84,382.896 218.016,360 214.776,332.712C213.552,322.488 208.728,311.904 198.072,303.408C192.96,299.376 187.272,297.072 181.944,295.632C171.792,292.968 160.632,294.696 151.416,299.376C147.024,301.608 140.256,306.72 137.016,311.472ZM169.848,298.008C169.128,297.648 164.736,298.44 163.512,298.656C159.192,299.592 155.088,301.104 151.2,303.408C149.688,304.272 146.448,306.36 145.224,307.728C148.896,310.824 155.088,311.616 159.696,310.104C162,309.312 164.448,307.872 166.464,305.568C168.12,303.552 169.776,300.024 169.848,298.008ZM146.736,320.688C154.512,327.096 163.872,327.096 171,322.344C176.904,318.384 179.352,310.896 178.92,304.344C178.848,303.336 178.272,299.16 177.84,298.368C176.976,298.152 174.168,297.792 173.376,297.936C172.944,298.944 172.944,302.904 169.416,307.224C162.936,315.288 151.992,316.656 142.776,310.176C142.272,310.464 140.544,312.408 140.184,312.984C139.896,313.344 139.824,313.272 140.76,314.28C141.192,314.712 141.48,315.072 141.912,315.576C143.496,317.376 144.864,319.104 146.736,320.688ZM135,321.48C135.576,322.056 139.176,324.72 140.832,326.16C142.56,327.744 144.216,329.328 145.728,331.056C148.968,334.584 151.2,337.896 155.592,340.488C171.576,349.992 189,339.768 189.432,322.128C189.576,317.52 187.848,311.472 187.272,306.216C187.2,305.28 186.768,301.68 186.84,300.96C185.688,300.168 182.88,299.592 181.656,299.16C181.584,299.52 182.088,301.896 182.16,302.976C184.608,327.744 156.528,338.112 141.12,319.896C140.472,319.032 138.672,316.8 137.88,316.224C136.656,317.88 135.864,319.824 135,321.48ZM131.76,333.216C132.336,333.792 134.496,335.088 135.288,335.664C136.584,336.528 137.808,337.464 139.032,338.472C141.552,340.488 143.712,342.504 145.872,344.664C149.904,348.84 153,353.592 158.184,357.048C167.184,362.952 177.264,363.384 185.688,359.136C190.224,356.76 194.616,352.512 196.92,347.328C199.224,342.144 199.656,338.112 199.512,333.36C199.368,329.472 198,324.288 197.352,319.968C196.848,316.224 196.56,313.488 196.344,309.888C196.272,308.952 196.2,307.296 196.272,306.432C195.192,305.496 191.376,302.904 190.368,302.544C190.152,303.768 191.592,311.976 191.952,313.632C192.744,317.664 193.104,320.688 192.672,324.864C190.872,342.648 172.008,353.16 155.592,344.448C146.376,339.552 144.432,332.496 133.704,324.864C132.984,326.088 131.832,331.848 131.76,333.216ZM199.8,309.528C199.44,310.896 201.024,321.408 201.24,322.56C202.104,327.96 202.968,329.328 202.968,335.52C202.968,350.064 192.528,363.816 176.4,365.256C166.464,366.12 156.6,361.872 149.688,354.168C145.296,349.2 142.92,346.104 137.304,341.496C135.792,340.272 133.128,338.04 131.544,337.248C131.328,337.896 131.544,340.776 131.616,341.64C131.76,343.224 131.976,344.52 132.336,346.104C132.84,348.84 133.848,352.152 135.144,354.816C138.096,360.864 142.416,366.768 149.256,371.304C166.464,382.68 189.576,379.296 202.464,363.528C211.104,352.944 213.768,338.976 210.024,326.664C209.16,323.784 208.08,320.904 206.424,318.096C204.912,315.576 202.32,311.688 199.8,309.528Z" style="fill:url(#_Linear1);"/>
            <path d="M242.568,323.496C238.896,323.496 235.728,324.72 233.352,327.312L233.352,312.696L226.656,312.696L226.656,352.44L233.064,352.44L233.064,348.768C235.296,351.504 238.608,352.8 242.568,352.8C250.92,352.8 257.112,347.04 257.112,338.112C257.112,329.256 250.92,323.496 242.568,323.496ZM241.776,347.04C236.952,347.04 233.28,343.584 233.28,338.112C233.28,332.64 236.952,329.184 241.776,329.184C246.6,329.184 250.272,332.64 250.272,338.112C250.272,343.584 246.6,347.04 241.776,347.04ZM276.336,352.8C285.192,352.8 291.6,346.68 291.6,338.112C291.6,329.544 285.192,323.496 276.336,323.496C267.552,323.496 261.072,329.544 261.072,338.112C261.072,346.68 267.552,352.8 276.336,352.8ZM276.336,347.04C271.512,347.04 267.84,343.584 267.84,338.112C267.84,332.64 271.512,329.184 276.336,329.184C281.16,329.184 284.832,332.64 284.832,338.112C284.832,343.584 281.16,347.04 276.336,347.04ZM298.008,352.44L304.704,352.44L304.704,312.696L298.008,312.696L298.008,352.44ZM334.872,312.696L334.872,327.384C332.568,324.72 329.328,323.496 325.656,323.496C317.304,323.496 311.184,329.256 311.184,338.112C311.184,347.04 317.304,352.8 325.656,352.8C329.544,352.8 332.856,351.504 335.088,348.768L335.088,352.44L341.568,352.44L341.568,312.696L334.872,312.696ZM326.448,347.04C321.624,347.04 317.88,343.584 317.88,338.112C317.88,332.64 321.624,329.184 326.448,329.184C331.272,329.184 334.944,332.64 334.944,338.112C334.944,343.584 331.272,347.04 326.448,347.04ZM350.352,352.44L357.048,352.44L357.048,312.696L350.352,312.696L350.352,352.44ZM386.208,323.784L377.136,344.952L368.136,323.784L361.152,323.784L373.68,352.512L373.176,353.664C371.88,356.472 370.512,357.624 368.136,357.624C366.336,357.624 364.464,356.904 363.168,355.68L360.504,360.576C362.304,362.232 365.328,363.24 368.208,363.24C372.96,363.24 376.632,361.224 379.224,354.744L392.616,323.784L386.208,323.784ZM398.52,352.728C400.464,352.728 402.048,351.216 402.048,349.056C402.048,346.896 400.464,345.384 398.52,345.384C396.504,345.384 394.848,346.896 394.848,349.056C394.848,351.216 396.504,352.728 398.52,352.728ZM433.944,338.328C433.944,330.048 428.256,324.216 420.624,324.216C412.92,324.216 407.232,330.12 407.232,338.472C407.232,346.752 413.136,352.656 421.632,352.656C425.88,352.656 429.696,351.072 432.144,348.12L430.632,346.32C428.472,348.984 425.232,350.208 421.704,350.208C414.936,350.208 410.112,345.744 409.824,339.12L433.872,339.12C433.872,338.832 433.944,338.544 433.944,338.328ZM420.624,326.592C426.528,326.592 430.92,330.912 431.352,337.032L409.896,337.032C410.328,330.912 414.648,326.592 420.624,326.592ZM450.864,324.216C446.544,324.216 442.44,325.728 439.704,328.176L441,330.12C443.304,328.032 446.832,326.592 450.648,326.592C456.12,326.592 459,329.4 459,334.584L459,336.816L449.352,336.816C441.576,336.816 438.912,340.416 438.912,344.664C438.912,349.416 442.728,352.656 448.992,352.656C453.888,352.656 457.344,350.64 459.072,347.472L459.072,352.44L461.664,352.44L461.664,334.728C461.664,327.744 457.776,324.216 450.864,324.216ZM449.352,350.424C444.456,350.424 441.576,348.192 441.576,344.52C441.576,341.352 443.664,338.904 449.424,338.904L459,338.904L459,344.16C457.344,348.192 454.104,350.424 449.352,350.424ZM475.272,330.552L475.272,324.432L472.68,324.432L472.68,352.44L475.344,352.44L475.344,337.824C475.344,330.912 479.088,326.808 485.28,326.808C485.496,326.808 485.712,326.88 485.928,326.88L485.928,324.216C480.672,324.216 477,326.52 475.272,330.552ZM507.384,348.768C506.232,349.776 504.72,350.352 503.064,350.352C499.608,350.352 497.808,348.336 497.808,344.736L497.808,326.736L506.736,326.736L506.736,324.432L497.808,324.432L497.808,318.312L495.144,318.312L495.144,324.432L490.032,324.432L490.032,326.736L495.144,326.736L495.144,345.024C495.144,349.776 497.808,352.656 502.776,352.656C504.864,352.656 507.096,352.008 508.464,350.64L507.384,348.768ZM529.632,324.216C524.448,324.216 520.56,326.52 518.616,330.264L518.616,312.696L515.952,312.696L515.952,352.44L518.616,352.44L518.616,337.536C518.616,330.912 522.648,326.664 529.272,326.664C534.888,326.664 538.272,329.976 538.272,336.312L538.272,352.44L541.008,352.44L541.008,336.096C541.008,328.248 536.4,324.216 529.632,324.216Z" style="fill:rgb(18,28,38);fill-rule:nonzero;"/>
        </g>
    </g>
    <defs>
        <linearGradient id="_Linear1" x1="0" y1="0" x2="1" y2="0" gradientUnits="userSpaceOnUse" gradientTransform="matrix(3.09268e-15,50.5073,-50.5073,3.09268e-15,171.567,312.682)"><stop offset="0" style="stop-color:rgb(199,218,60);stop-opacity:1"/><stop offset="0.59" style="stop-color:rgb(139,149,69);stop-opacity:1"/><stop offset="1" style="stop-color:rgb(79,79,79);stop-opacity:1"/></linearGradient>
    </defs>
</svg>
