<?xml version="1.0" encoding="UTF-8"?>
<!DOCTYPE svg PUBLIC "-//W3C//DTD SVG 1.1//EN" "http://www.w3.org/Graphics/SVG/1.1/DTD/svg11.dtd">
<!-- Creator: CorelDRAW X7 -->
<svg xmlns="http://www.w3.org/2000/svg" xml:space="preserve" width="8.5in" height="11in" version="1.1" style="shape-rendering:geometricPrecision; text-rendering:geometricPrecision; image-rendering:optimizeQuality; fill-rule:evenodd; clip-rule:evenodd"
viewBox="0 0 8500 11000"
 xmlns:xlink="http://www.w3.org/1999/xlink">
 <defs>
  <style type="text/css">
   <![CDATA[
    .fil0 {fill:#121C26;fill-rule:nonzero}
   ]]>
  </style>
 </defs>
 <g id="Layer_x0020_1">
  <metadata id="CorelCorpID_0Corel-Layer"/>
  <path class="fil0" d="M2656 2896c-50,0 -95,17 -127,53l0 -203 -93 0 0 552 89 0 0 -51c31,38 77,56 131,56 117,0 202,-80 202,-204 0,-123 -85,-203 -202,-203zm-10 328c-67,0 -118,-49 -118,-125 0,-76 51,-124 118,-124 67,0 118,48 118,124 0,76 -51,125 -118,125zm479 79c124,0 213,-85 213,-204 0,-119 -89,-203 -213,-203 -122,0 -211,84 -211,203 0,119 89,204 211,204zm0 -79c-67,0 -117,-49 -117,-125 0,-76 50,-124 117,-124 68,0 119,48 119,124 0,76 -51,125 -119,125zm302 74l93 0 0 -552 -93 0 0 552zm511 -552l0 204c-31,-37 -76,-54 -128,-54 -115,0 -201,80 -201,203 0,124 86,204 201,204 55,0 101,-18 132,-56l0 51 89 0 0 -552 -93 0zm-117 478c-67,0 -118,-49 -118,-125 0,-76 51,-124 118,-124 67,0 119,48 119,124 0,76 -52,125 -119,125zm332 74l93 0 0 -552 -93 0 0 552zm498 -398l-125 294 -125 -294 -97 0 173 399 -6 16c-18,40 -38,55 -70,55 -26,0 -51,-10 -69,-27l-37 68c25,23 67,37 106,37 67,0 117,-28 154,-118l186 -430 -90 0zm172 402c26,0 49,-21 49,-51 0,-30 -23,-51 -49,-51 -28,0 -51,21 -51,51 0,30 23,51 51,51zm492 -200c0,-115 -79,-196 -186,-196 -106,0 -186,82 -186,198 0,115 83,197 200,197 59,0 113,-22 147,-63l-21 -25c-30,37 -76,54 -125,54 -93,0 -161,-62 -164,-154l334 0c0,-4 1,-8 1,-11zm-186 -163c83,0 144,60 149,145l-298 0c6,-85 67,-145 149,-145zm421 -33c-60,0 -117,21 -156,55l19 27c32,-29 80,-49 134,-49 76,0 115,39 115,111l0 31 -133 0c-108,0 -145,50 -145,109 0,66 53,111 140,111 68,0 115,-28 140,-72l0 69 36 0 0 -246c0,-96 -54,-146 -150,-146zm-21 364c-68,0 -108,-31 -108,-81 0,-45 28,-79 109,-79l132 0 0 73c-22,56 -67,87 -133,87zm360 -276l0 -85 -36 0 0 389 37 0 0 -203c0,-96 51,-153 138,-153 3,0 6,1 9,1l0 -37c-73,0 -125,32 -148,88zm445 253c-15,14 -37,22 -60,22 -47,0 -72,-28 -72,-78l0 -250 124 0 0 -32 -124 0 0 -84 -37 0 0 84 -72 0 0 32 72 0 0 254c0,66 37,106 105,106 30,0 61,-9 80,-28l-16 -26zm309 -341c-72,0 -125,32 -152,85l0 -245 -37 0 0 552 37 0 0 -207c0,-92 56,-151 147,-151 79,0 126,46 126,134l0 224 37 0 0 -227c0,-109 -63,-165 -158,-165z"/>
 </g>
</svg>
