<?xml version="1.0" encoding="UTF-8"?>
<!DOCTYPE svg PUBLIC "-//W3C//DTD SVG 1.1//EN" "http://www.w3.org/Graphics/SVG/1.1/DTD/svg11.dtd">
<!-- Creator: CorelDRAW X7 -->
<svg xmlns="http://www.w3.org/2000/svg" xml:space="preserve" width="8.5in" height="11in" version="1.1" style="shape-rendering:geometricPrecision; text-rendering:geometricPrecision; image-rendering:optimizeQuality; fill-rule:evenodd; clip-rule:evenodd"
viewBox="0 0 8500 11000"
 xmlns:xlink="http://www.w3.org/1999/xlink">
 <defs>
  <style type="text/css">
   <![CDATA[
    .fil0 {fill:#373435}
    .fil1 {fill:#373435;fill-rule:nonzero}
   ]]>
  </style>
 </defs>
 <g id="Layer_x0020_1">
  <metadata id="CorelCorpID_0Corel-Layer"/>
  <path class="fil0" d="M1903 4326c-34,52 -40,53 -69,114 -47,99 -64,218 -51,326 17,143 83,291 232,407 96,76 219,118 333,124 372,21 680,-297 635,-676 -17,-142 -84,-289 -232,-407 -71,-56 -150,-88 -224,-108 -141,-37 -296,-13 -424,52 -61,31 -155,102 -200,168zm456 -187c-10,-5 -71,6 -88,9 -60,13 -117,34 -171,66 -21,12 -66,41 -83,60 51,43 137,54 201,33 32,-11 66,-31 94,-63 23,-28 46,-77 47,-105zm-321 315c108,89 238,89 337,23 82,-55 116,-159 110,-250 -1,-14 -9,-72 -15,-83 -12,-3 -51,-8 -62,-6 -6,14 -6,69 -55,129 -90,112 -242,131 -370,41 -7,4 -31,31 -36,39 -4,5 -5,4 8,18 6,6 10,11 16,18 22,25 41,49 67,71zm-163 11c8,8 58,45 81,65 24,22 47,44 68,68 45,49 76,95 137,131 222,132 464,-10 470,-255 2,-64 -22,-148 -30,-221 -1,-13 -7,-63 -6,-73 -16,-11 -55,-19 -72,-25 -1,5 6,38 7,53 34,344 -356,488 -570,235 -9,-12 -34,-43 -45,-51 -17,23 -28,50 -40,73zm-45 163c8,8 38,26 49,34 18,12 35,25 52,39 35,28 65,56 95,86 56,58 99,124 171,172 125,82 265,88 382,29 63,-33 124,-92 156,-164 32,-72 38,-128 36,-194 -2,-54 -21,-126 -30,-186 -7,-52 -11,-90 -14,-140 -1,-13 -2,-36 -1,-48 -15,-13 -68,-49 -82,-54 -3,17 17,131 22,154 11,56 16,98 10,156 -25,247 -287,393 -515,272 -128,-68 -155,-166 -304,-272 -10,17 -26,97 -27,116zm945 -329c-5,19 17,165 20,181 12,75 24,94 24,180 0,202 -145,393 -369,413 -138,12 -275,-47 -371,-154 -61,-69 -94,-112 -172,-176 -21,-17 -58,-48 -80,-59 -3,9 0,49 1,61 2,22 5,40 10,62 7,38 21,84 39,121 41,84 101,166 196,229 239,158 560,111 739,-108 120,-147 157,-341 105,-512 -12,-40 -27,-80 -50,-119 -21,-35 -57,-89 -92,-119z"/>
  <path class="fil1" d="M3369 4493c-51,0 -95,17 -128,53l0 -203 -93 0 0 552 89 0 0 -51c31,38 77,56 132,56 116,0 202,-80 202,-204 0,-123 -86,-203 -202,-203zm-11 327c-67,0 -118,-48 -118,-124 0,-76 51,-124 118,-124 67,0 118,48 118,124 0,76 -51,124 -118,124zm480 80c123,0 212,-85 212,-204 0,-119 -89,-203 -212,-203 -122,0 -212,84 -212,203 0,119 90,204 212,204zm0 -80c-67,0 -118,-48 -118,-124 0,-76 51,-124 118,-124 67,0 118,48 118,124 0,76 -51,124 -118,124zm301 75l93 0 0 -552 -93 0 0 552zm512 -552l0 204c-32,-37 -77,-54 -128,-54 -116,0 -201,80 -201,203 0,124 85,204 201,204 54,0 100,-18 131,-56l0 51 90 0 0 -552 -93 0zm-117 477c-67,0 -119,-48 -119,-124 0,-76 52,-124 119,-124 67,0 118,48 118,124 0,76 -51,124 -118,124zm332 75l93 0 0 -552 -93 0 0 552zm498 -398l-126 294 -125 -294 -97 0 174 399 -7 16c-18,39 -37,55 -70,55 -25,0 -51,-10 -69,-27l-37 68c25,23 67,37 107,37 66,0 117,-28 153,-118l186 -430 -89 0zm171 402c27,0 49,-21 49,-51 0,-30 -22,-51 -49,-51 -28,0 -51,21 -51,51 0,30 23,51 51,51zm492 -200c0,-115 -79,-196 -185,-196 -107,0 -186,82 -186,198 0,115 82,197 200,197 59,0 112,-22 146,-63l-21 -25c-30,37 -75,54 -124,54 -94,0 -161,-62 -165,-154l334 0c0,-4 1,-8 1,-11zm-185 -163c82,0 143,60 149,145l-298 0c6,-85 66,-145 149,-145zm420 -33c-60,0 -117,21 -155,55l18 27c32,-29 81,-49 134,-49 76,0 116,39 116,111l0 31 -134 0c-108,0 -145,50 -145,109 0,66 53,111 140,111 68,0 116,-28 140,-72l0 69 36 0 0 -246c0,-97 -54,-146 -150,-146zm-21 364c-68,0 -108,-31 -108,-82 0,-44 29,-78 109,-78l133 0 0 73c-23,56 -68,87 -134,87zm360 -276l0 -85 -36 0 0 389 37 0 0 -203c0,-96 52,-153 138,-153 3,0 6,1 9,1l0 -37c-73,0 -124,32 -148,88zm446 253c-16,14 -37,22 -60,22 -48,0 -73,-28 -73,-78l0 -250 124 0 0 -32 -124 0 0 -85 -37 0 0 85 -71 0 0 32 71 0 0 254c0,66 37,106 106,106 29,0 60,-9 79,-28l-15 -26zm309 -341c-72,0 -126,32 -153,84l0 -244 -37 0 0 552 37 0 0 -207c0,-92 56,-151 148,-151 78,0 125,46 125,134l0 224 38 0 0 -227c0,-109 -64,-165 -158,-165z"/>
 </g>
</svg>
